<svg width="100" height="100" viewBox="0 0 100 100" fill="none" xmlns="http://www.w3.org/2000/svg">
<g id="Group 1000002833">
<circle id="Ellipse 117" cx="50" cy="50" r="49.75" stroke="white" stroke-width="0.5"/>
<path id="add-user 1 (Traced)" fill-rule="evenodd" clip-rule="evenodd" d="M46.4024 34.0258C46.3519 34.0359 46.1041 34.0783 45.8516 34.1201C43.9769 34.43 42.0043 35.7309 40.9332 37.3637C40.3663 38.2279 39.9218 39.3225 39.7246 40.3396C39.6006 40.9786 39.6143 42.5827 39.7491 43.2279C40.0814 44.8179 40.7867 46.144 41.8789 47.2319C42.3837 47.7347 42.8422 48.0987 43.3327 48.3863L43.6596 48.5779L43.0375 48.8177C39.0925 50.3385 36.4065 54.0107 36.0612 58.3549C35.9792 59.3862 35.9797 62.5292 36.0619 62.8315C36.0965 62.9589 36.1964 63.1206 36.284 63.191C36.4425 63.3184 36.4763 63.3189 44.4754 63.3189H52.5078L52.7214 63.5847C53.7473 64.8612 55.0771 65.6424 56.6952 65.9188C58.4022 66.2104 60.2765 65.7055 61.6438 64.5858C63.2594 63.2628 64.1823 61.0225 63.9698 58.9398C63.6839 56.137 61.9202 54.0208 59.2241 53.2458C58.8067 53.1258 58.5733 53.1038 57.6426 53.0968L56.5507 53.0887L56.2241 52.6305C55.0056 50.9214 53.2667 49.5769 51.2884 48.8143L50.6828 48.5808L51.0866 48.3395C51.6956 47.9756 52.5312 47.237 53.0008 46.6475C55.4919 43.52 55.2625 39.0724 52.4643 36.2439C51.0232 34.7872 49.0766 33.9768 47.0756 34.0005C46.7559 34.0043 46.4529 34.0156 46.4024 34.0258ZM48.2058 35.5262C50.3267 35.9041 52.0836 37.326 52.8937 39.3204C53.2405 40.174 53.3452 40.7501 53.3405 41.7777C53.3368 42.5838 53.3134 42.8036 53.1742 43.3409C52.5946 45.5785 50.882 47.3277 48.6975 47.9134C48.1766 48.053 47.9533 48.0779 47.198 48.0805C46.0307 48.0845 45.3058 47.9142 44.3194 47.4045C43.4872 46.9744 42.5644 46.148 42.0596 45.3808C41.6754 44.797 41.284 43.9125 41.1277 43.2747C40.9328 42.4799 40.9316 41.0799 41.1253 40.2912C41.6941 37.9733 43.4371 36.1758 45.6546 35.62C45.9145 35.5549 46.2096 35.4899 46.3106 35.4757C46.7539 35.4131 47.7148 35.4387 48.2058 35.5262ZM49.2827 49.619C51.5097 50.0709 53.5328 51.3016 54.8833 53.0262L55.2752 53.5266L54.8597 53.75C53.3858 54.5424 52.2551 55.8742 51.7332 57.4325C51.2928 58.7475 51.2886 60.2576 51.7215 61.5985C51.8024 61.8488 51.8154 61.9604 51.7661 61.9796C51.7277 61.9945 48.4741 61.9995 44.5358 61.9906L37.3752 61.9745L37.3569 60.5051C37.3299 58.3344 37.4591 57.2519 37.8982 55.9685C39.0972 52.4643 42.186 49.9531 45.8516 49.5019C46.6426 49.4045 48.5461 49.4695 49.2827 49.619ZM58.9181 54.5993C60.6924 55.0922 62.0664 56.5416 62.5312 58.4104C62.6774 58.998 62.6785 60.1287 62.5335 60.724C62.3806 61.3517 61.8912 62.3423 61.4949 62.8261C60.5493 63.9807 59.1785 64.632 57.694 64.632C56.8472 64.632 56.2559 64.4909 55.4907 64.1061C54.4925 63.6042 53.7158 62.8099 53.2229 61.7869C52.8636 61.0414 52.7601 60.6192 52.7227 59.7477C52.6725 58.5743 52.9106 57.6535 53.5044 56.724C54.1965 55.6409 55.3634 54.8199 56.5618 54.5729C56.747 54.5348 56.9535 54.4905 57.0208 54.4746C57.2702 54.4157 58.5629 54.5006 58.9181 54.5993ZM57.3771 56.2884C57.0451 56.4609 56.9902 56.6761 56.9902 57.8062V58.8089L55.8835 58.8285L54.7766 58.8481L54.5982 59.0523C54.3252 59.3647 54.364 59.8143 54.687 60.0817C54.7996 60.1748 54.9671 60.1899 55.9039 60.1911L56.9902 60.1925V61.2304C56.9902 62.046 57.0109 62.3128 57.0867 62.4761C57.1815 62.68 57.4831 62.8812 57.694 62.8812C57.905 62.8812 58.2066 62.68 58.3013 62.4761C58.3772 62.3128 58.3979 62.046 58.3979 61.2304V60.1925H59.475H60.5521L60.7602 59.9799C61.0403 59.6937 61.0512 59.3514 60.7898 59.0523L60.6114 58.8481L59.5085 58.8286L58.4056 58.809L58.3865 57.7197L58.3673 56.6304L58.1806 56.4399C57.9512 56.2056 57.6468 56.1483 57.3771 56.2884Z" fill="white"/>
</g>
</svg>
